<?xml version="1.0" encoding="utf-8"?>
<!-- Generator: Adobe Illustrator 18.0.0, SVG Export Plug-In . SVG Version: 6.00 Build 0)  -->
<!DOCTYPE svg PUBLIC "-//W3C//DTD SVG 1.1//EN" "http://www.w3.org/Graphics/SVG/1.1/DTD/svg11.dtd">
<svg version="1.1" id="Layer_1" xmlns="http://www.w3.org/2000/svg" xmlns:xlink="http://www.w3.org/1999/xlink" x="0px" y="0px"
	 viewBox="0 0 353.1 17.1" enable-background="new 0 0 353.1 17.1" xml:space="preserve">
<g>
	<rect x="0" y="0" fill="#D1DAD9" width="10.7" height="17.1"/>
	<polygon fill="#B2B9B8" points="10.7,0 21.5,0 18.1,8.6 21.5,17.1 10.7,17.1 	"/>
</g>
<polygon fill="#B2B9B8" points="51.6,17.1 30.1,17.1 30.1,0 51.6,0 48.2,8.6 "/>
<g>
	<rect x="60.3" y="0" fill="#B2B9B8" width="21.5" height="17.1"/>
	<rect x="60.3" y="0" fill="#D1DAD9" width="21.5" height="3.4"/>
	<rect x="60.3" y="6.8" fill="#D1DAD9" width="21.5" height="3.4"/>
	<rect x="60.3" y="13.7" fill="#D1DAD9" width="21.5" height="3.4"/>
</g>
<g>
	<rect x="120.6" y="0" fill="#B2B9B8" width="21.5" height="17.1"/>
	<g>
		<rect x="120.6" y="0" fill="#D1DAD9" width="21.5" height="8.6"/>
	</g>
</g>
<g>
	<rect x="90.4" y="1.7" fill="#D1DAD9" width="21.5" height="13.7"/>
	<rect x="90.4" y="0" fill="#B2B9B8" width="21.5" height="3.4"/>
	<rect x="90.4" y="13.7" fill="#B2B9B8" width="21.5" height="3.4"/>
</g>
<g>
	<rect x="150.7" y="0" fill="#D1DAD9" width="21.5" height="17.1"/>
	<polygon fill="#B2B9B8" points="161.5,0 150.7,8.6 161.5,17.1 172.2,8.6 	"/>
</g>
<g>
	<rect x="180.9" y="0" fill="#D1DAD9" width="21.5" height="17.1"/>
	<rect x="184.5" y="0" fill="#B2B9B8" width="3.6" height="17.1"/>
	<rect x="191.6" y="0" fill="#B2B9B8" width="3.6" height="17.1"/>
	<rect x="198.8" y="0" fill="#B2B9B8" width="3.6" height="17.1"/>
</g>
<g>
	<rect x="211" y="0" fill="#D1DAD9" width="21.5" height="17.1"/>
	<rect x="221.8" y="0" fill="#B2B9B8" width="10.7" height="17.1"/>
</g>
<g>
	<rect x="301.5" y="0" fill="#B2B9B8" width="21.5" height="17.1"/>
	<rect x="312.2" y="0" fill="#D1DAD9" width="10.7" height="17.1"/>
</g>
<g>
	<rect x="241.2" y="0" fill="#D1DAD9" width="21.5" height="17.1"/>
	<circle fill="#B2B9B8" cx="251.9" cy="8.6" r="5.3"/>
</g>
<g>
	<rect x="271.3" y="0" fill="#B2B9B8" width="21.5" height="17.1"/>
	<rect x="271.3" y="5.7" fill="#D1DAD9" width="21.5" height="5.7"/>
</g>
<g>
	<rect x="331.6" y="0" fill="#B2B9B8" width="21.5" height="17.1"/>
	<rect x="342.4" y="8.6" fill="#D1DAD9" width="10.7" height="8.6"/>
	<rect x="331.6" y="0" fill="#D1DAD9" width="10.7" height="8.6"/>
</g>
</svg>
